<svg id="svg" version="1.1" xmlns="http://www.w3.org/2000/svg" xmlns:xlink="http://www.w3.org/1999/xlink" width="400" height="266.6666666666667" viewBox="0, 0, 400,266.6666666666667"><g id="svgg"><path id="path0" d="M122.306 43.185 C 121.405 44.180,121.913 45.573,123.177 45.573 C 124.524 45.573,125.017 43.896,123.900 43.114 C 123.151 42.588,122.833 42.603,122.306 43.185 M128.533 44.096 C 127.447 44.890,128.180 46.695,129.535 46.563 C 130.267 46.491,130.346 46.393,130.423 45.453 C 130.542 43.994,129.598 43.317,128.533 44.096 M116.458 45.365 C 115.741 46.082,116.533 47.917,117.560 47.917 C 118.158 47.917,118.750 47.156,118.750 46.388 C 118.750 45.495,118.318 45.052,117.448 45.052 C 117.076 45.052,116.630 45.193,116.458 45.365 M241.309 46.460 C 236.222 48.354,235.217 55.874,239.628 59.041 C 244.986 62.889,251.783 57.326,249.633 50.853 C 248.469 47.349,244.521 45.265,241.309 46.460 M133.125 48.229 C 132.578 48.776,132.754 49.950,133.451 50.406 C 134.771 51.271,135.940 49.925,135.049 48.566 C 134.593 47.870,133.649 47.705,133.125 48.229 M245.282 49.233 C 248.023 50.773,248.374 54.620,245.966 56.734 C 243.217 59.148,239.249 57.093,239.249 53.255 C 239.249 49.812,242.479 47.658,245.282 49.233 M112.956 50.281 C 112.199 50.722,112.333 52.539,113.150 52.911 C 114.024 53.310,114.844 52.599,114.844 51.444 C 114.844 50.153,114.033 49.654,112.956 50.281 M135.305 54.315 C 134.753 54.868,134.788 56.072,135.372 56.600 C 136.718 57.818,138.270 55.718,136.979 54.427 C 136.352 53.800,135.854 53.767,135.305 54.315 M111.771 56.823 C 111.338 57.256,111.379 58.724,111.835 59.103 C 112.413 59.583,113.352 59.320,113.778 58.559 C 114.494 57.279,112.789 55.805,111.771 56.823 M134.384 61.181 C 133.588 62.668,135.170 64.271,136.310 63.132 C 136.794 62.648,136.849 61.432,136.406 60.990 C 135.911 60.494,134.690 60.610,134.384 61.181 M113.690 62.909 C 112.834 63.766,113.522 65.365,114.747 65.365 C 115.881 65.365,116.319 63.754,115.409 62.931 C 114.811 62.390,114.217 62.382,113.690 62.909 M139.974 66.912 C 135.193 67.069,134.643 67.213,133.298 68.662 C 131.496 70.603,131.641 67.301,131.641 106.510 L 131.641 141.797 132.218 142.876 C 134.079 146.356,134.068 146.354,153.953 146.354 L 170.380 146.354 170.214 147.721 C 170.122 148.473,169.733 151.110,169.349 153.581 L 168.651 158.073 165.876 158.073 C 162.985 158.073,162.240 158.349,162.240 159.420 C 162.240 160.715,161.551 160.677,184.999 160.677 C 208.239 160.677,207.813 160.701,207.813 159.375 C 207.813 158.290,207.208 158.073,204.184 158.073 C 202.742 158.073,201.563 158.027,201.563 157.971 C 201.563 157.916,201.392 156.949,201.183 155.823 C 200.685 153.138,200.000 148.104,200.000 147.126 L 200.000 146.354 216.421 146.354 C 236.203 146.354,236.169 146.360,237.924 142.593 L 238.537 141.276 238.538 106.510 C 238.538 82.462,238.452 71.433,238.258 70.734 C 237.850 69.264,235.855 67.360,234.318 66.973 C 233.056 66.655,149.475 66.602,139.974 66.912 M118.118 67.336 C 117.321 68.133,117.987 69.792,119.103 69.792 C 120.366 69.792,120.805 68.083,119.734 67.332 C 119.003 66.821,118.632 66.821,118.118 67.336 M124.045 68.910 C 123.645 69.520,123.639 69.663,123.983 70.277 C 124.740 71.631,126.302 71.201,126.302 69.639 C 126.302 68.198,124.824 67.721,124.045 68.910 M234.558 69.781 C 236.301 70.844,236.193 68.741,236.200 101.741 C 236.204 118.186,236.146 131.611,236.072 131.576 C 235.998 131.540,212.969 131.510,184.896 131.510 L 133.854 131.510 133.855 101.758 C 133.856 68.350,133.698 71.035,135.740 69.790 C 137.064 68.983,233.234 68.974,234.558 69.781 M146.361 80.677 C 143.176 80.804,143.490 78.582,143.490 101.042 C 143.490 119.554,143.513 120.513,143.966 120.923 C 144.400 121.316,146.113 121.354,163.222 121.354 L 182.002 121.354 182.407 120.775 C 183.101 119.784,183.013 82.076,182.315 81.214 L 181.817 80.599 165.062 80.599 C 155.847 80.599,147.431 80.634,146.361 80.677 M180.635 100.977 L 180.599 118.880 163.086 118.947 L 145.573 119.014 145.573 101.043 L 145.573 83.073 163.122 83.073 L 180.672 83.073 180.635 100.977 M252.805 85.885 C 250.497 86.006,250.521 85.927,250.521 93.417 C 250.521 101.583,249.769 100.781,257.422 100.781 C 265.082 100.781,264.323 101.606,264.323 93.279 C 264.323 88.516,264.237 86.704,263.997 86.384 C 263.672 85.950,257.142 85.659,252.805 85.885 M190.677 87.813 C 190.239 88.251,190.288 89.209,190.774 89.695 C 191.274 90.195,225.395 90.329,226.319 89.835 C 226.890 89.529,227.006 88.308,226.510 87.812 C 226.059 87.361,191.129 87.361,190.677 87.813 M262.180 93.164 L 262.251 98.177 257.558 98.177 L 252.865 98.177 252.865 93.093 L 252.865 88.009 257.487 88.080 L 262.109 88.151 262.180 93.164 M190.677 98.490 C 190.239 98.928,190.288 99.886,190.774 100.372 C 191.274 100.872,225.395 101.006,226.319 100.512 C 226.819 100.244,226.972 99.390,226.665 98.589 C 226.457 98.047,191.217 97.950,190.677 98.490 M190.677 109.167 C 190.505 109.339,190.365 109.725,190.365 110.026 C 190.365 111.205,190.285 111.198,204.297 111.198 C 218.309 111.198,218.229 111.205,218.229 110.026 C 218.229 109.725,218.089 109.339,217.917 109.167 C 217.466 108.716,191.128 108.716,190.677 109.167 M109.346 112.145 C 109.151 112.379,108.932 113.161,108.858 113.882 C 108.671 115.706,107.742 116.074,106.367 114.867 C 105.124 113.776,104.758 113.842,103.181 115.438 C 101.612 117.026,101.463 117.792,102.465 119.106 C 103.459 120.409,102.958 121.875,101.519 121.875 C 99.892 121.875,99.479 122.508,99.479 125.000 C 99.479 127.421,99.907 128.125,101.378 128.125 C 102.834 128.125,103.379 129.720,102.332 130.913 C 101.413 131.959,101.387 132.249,102.127 133.233 C 104.074 135.824,105.046 136.218,106.489 135.004 C 107.800 133.901,108.699 134.373,108.806 136.220 C 108.914 138.060,109.229 138.281,111.754 138.281 C 114.081 138.281,114.583 137.900,114.583 136.134 C 114.583 134.644,115.589 134.322,116.833 135.413 C 118.253 136.660,118.998 136.502,120.563 134.622 C 122.101 132.775,122.110 132.714,121.101 131.342 C 120.020 129.872,120.398 128.646,121.932 128.646 C 123.533 128.646,123.958 128.001,123.958 125.579 C 123.958 123.089,123.633 122.523,122.063 122.288 C 120.442 122.045,120.083 120.894,121.187 119.481 C 122.725 117.513,119.022 113.078,117.436 114.988 C 116.220 116.453,114.583 115.777,114.583 113.810 C 114.583 112.085,114.055 111.719,111.562 111.719 C 110.155 111.719,109.613 111.823,109.346 112.145 M112.551 115.403 C 112.603 116.284,112.764 116.803,113.021 116.918 C 113.236 117.015,114.027 117.408,114.779 117.792 C 116.495 118.668,116.592 118.664,117.607 117.681 L 118.441 116.872 118.894 117.562 C 119.335 118.236,119.330 118.269,118.657 118.971 C 117.825 119.840,117.808 120.195,118.518 121.803 C 119.685 124.446,119.596 124.343,120.792 124.430 C 122.570 124.559,122.356 126.132,120.545 126.250 C 119.391 126.325,119.334 126.367,119.031 127.378 C 118.858 127.956,118.490 128.800,118.213 129.253 C 117.530 130.374,117.573 130.695,118.544 131.697 C 119.851 133.045,118.869 134.046,117.439 132.824 C 116.253 131.811,115.811 131.860,113.021 133.313 C 112.780 133.439,112.600 133.980,112.551 134.727 C 112.427 136.613,111.008 136.591,110.887 134.701 L 110.807 133.465 109.115 132.620 C 107.058 131.593,106.864 131.584,105.934 132.475 L 105.199 133.179 104.644 132.624 L 104.089 132.069 104.779 131.249 C 105.630 130.237,105.633 129.994,104.818 128.385 C 104.460 127.679,104.167 126.925,104.167 126.711 C 104.167 126.198,103.357 125.781,102.361 125.781 C 100.828 125.781,101.215 124.270,102.774 124.168 C 103.980 124.089,103.988 124.082,104.411 122.780 C 104.645 122.060,105.037 121.184,105.283 120.834 C 105.903 119.948,105.846 119.547,104.966 118.632 C 104.221 117.858,104.214 117.825,104.669 117.268 L 105.136 116.698 106.018 117.453 C 107.034 118.321,107.340 118.374,108.293 117.847 C 108.673 117.636,109.424 117.291,109.961 117.079 C 110.910 116.704,110.938 116.656,110.938 115.378 C 110.938 113.305,112.430 113.328,112.551 115.403 M109.457 120.037 C 106.673 121.302,105.754 125.528,107.655 128.329 C 110.577 132.636,116.680 130.475,116.661 125.140 C 116.646 120.935,113.066 118.399,109.457 120.037 M113.029 122.270 C 115.710 123.656,114.706 128.196,111.719 128.196 C 110.746 128.196,110.459 128.061,109.718 127.253 C 107.383 124.704,110.031 120.719,113.029 122.270 M236.198 137.513 C 236.198 141.169,236.037 141.785,234.769 142.969 L 234.073 143.620 185.307 143.687 L 136.541 143.754 135.653 143.161 C 134.151 142.157,133.855 141.216,133.855 137.435 L 133.854 134.115 185.026 134.115 L 236.198 134.115 236.198 137.513 M251.408 136.003 C 248.014 138.290,247.932 143.479,251.250 146.010 C 254.811 148.726,259.635 145.893,259.635 141.086 C 259.635 136.392,255.041 133.553,251.408 136.003 M255.651 138.010 C 257.614 139.207,257.872 142.097,256.157 143.669 C 253.057 146.510,249.324 141.501,252.313 138.511 C 253.476 137.348,254.350 137.217,255.651 138.010 M197.750 148.379 C 197.905 150.230,198.767 156.081,199.093 157.487 L 199.229 158.073 185.081 158.073 L 170.933 158.073 171.509 154.753 C 171.826 152.926,172.228 150.290,172.403 148.893 L 172.721 146.354 185.151 146.354 L 197.581 146.354 197.750 148.379 M162.760 186.581 L 162.760 190.088 161.858 189.476 C 157.402 186.452,152.745 191.852,154.526 197.977 C 155.663 201.890,159.861 203.280,162.636 200.663 L 163.542 199.808 163.542 200.831 L 163.542 201.853 164.589 201.773 L 165.636 201.693 165.695 192.383 L 165.755 183.073 164.258 183.073 L 162.760 183.073 162.760 186.581 M230.729 186.742 L 230.729 190.411 229.936 189.744 C 225.524 186.031,220.417 191.830,222.347 198.361 C 223.385 201.878,227.875 203.136,230.481 200.640 L 231.250 199.903 231.250 200.863 L 231.250 201.823 232.422 201.823 L 233.594 201.823 233.594 192.448 L 233.594 183.073 232.161 183.073 L 230.729 183.073 230.729 186.742 M92.967 184.342 C 86.271 186.539,85.461 198.207,91.797 201.202 C 95.567 202.984,100.138 201.325,101.413 197.712 L 101.794 196.631 100.832 196.364 C 99.440 195.977,99.316 196.011,98.958 196.876 C 96.794 202.101,90.466 199.165,90.539 192.969 C 90.610 186.911,96.252 184.115,98.521 189.014 L 99.097 190.257 100.333 189.874 C 101.643 189.467,101.635 189.489,101.024 187.854 C 100.068 185.297,95.770 183.423,92.967 184.342 M103.776 193.078 L 103.776 201.823 105.273 201.823 L 106.771 201.823 106.771 198.438 L 106.771 195.052 108.201 195.052 L 109.632 195.052 111.328 198.438 L 113.025 201.823 114.585 201.823 C 115.444 201.823,116.145 201.794,116.144 201.758 C 116.143 201.722,115.323 200.111,114.323 198.177 C 112.206 194.086,112.308 194.535,113.347 193.880 C 116.459 191.919,116.220 186.835,112.934 185.089 C 111.977 184.580,111.374 184.502,107.813 184.422 L 103.776 184.332 103.776 193.078 M117.970 190.690 C 117.972 200.079,118.991 201.852,124.385 201.852 C 129.717 201.852,130.729 200.077,130.729 190.722 L 130.729 184.375 129.297 184.375 L 127.865 184.375 127.865 190.889 L 127.865 197.403 127.009 198.337 C 125.477 200.009,122.517 199.763,121.361 197.867 C 120.872 197.065,120.835 196.565,120.834 190.690 L 120.833 184.375 119.401 184.375 L 117.969 184.375 117.970 190.690 M133.854 193.108 L 133.854 201.886 137.826 201.770 C 145.203 201.555,147.576 199.264,147.343 192.578 C 147.128 186.375,145.059 184.578,137.956 184.420 L 133.854 184.329 133.854 193.108 M186.198 193.099 L 186.198 201.823 187.630 201.823 L 189.063 201.823 189.063 198.698 L 189.063 195.573 191.181 195.573 C 196.016 195.573,198.672 193.013,198.062 188.942 C 197.562 185.606,195.300 184.379,189.648 184.376 L 186.198 184.375 186.198 193.099 M252.148 185.199 C 251.183 185.416,251.041 185.537,251.039 186.148 C 251.030 188.374,250.794 188.802,249.575 188.802 L 248.438 188.802 248.438 190.104 L 248.438 191.406 249.592 191.406 L 250.747 191.406 250.829 195.828 C 250.929 201.195,251.123 201.571,253.885 201.771 C 256.442 201.956,256.771 201.786,256.771 200.280 L 256.771 199.007 255.874 199.282 C 253.958 199.870,253.646 199.276,253.646 195.046 L 253.646 191.406 255.208 191.406 L 256.771 191.406 256.771 190.104 L 256.771 188.802 255.208 188.802 L 253.646 188.802 253.646 186.849 C 253.646 185.775,253.558 184.908,253.451 184.924 C 253.343 184.939,252.757 185.063,252.148 185.199 M110.881 186.999 C 111.927 187.363,112.500 188.270,112.500 189.562 C 112.500 191.881,111.477 192.708,108.607 192.708 L 106.771 192.708 106.771 189.714 L 106.771 186.719 108.425 186.719 C 109.334 186.719,110.440 186.845,110.881 186.999 M142.094 187.443 C 143.738 188.344,144.527 190.188,144.530 193.131 C 144.533 197.505,142.923 199.219,138.810 199.219 L 136.719 199.219 136.719 193.142 C 136.719 189.800,136.768 187.017,136.828 186.957 C 137.051 186.733,141.558 187.149,142.094 187.443 M193.956 187.420 C 196.838 189.572,194.962 193.229,190.977 193.229 L 189.063 193.229 189.063 189.940 L 189.063 186.652 191.157 186.773 C 192.717 186.863,193.432 187.029,193.956 187.420 M171.760 188.915 C 166.792 190.757,166.279 199.034,170.991 201.316 C 173.454 202.508,176.689 201.903,178.204 199.967 L 178.853 199.138 177.773 198.585 L 176.693 198.033 175.715 198.886 C 173.694 200.651,170.833 199.327,170.833 196.628 L 170.833 195.833 174.906 195.833 L 178.979 195.833 178.836 194.263 C 178.461 190.127,175.180 187.647,171.760 188.915 M204.949 188.998 C 204.449 189.248,203.804 189.829,203.517 190.289 C 202.807 191.426,202.604 191.355,202.604 189.974 L 202.604 188.802 201.302 188.802 L 200.000 188.802 200.000 195.313 L 200.000 201.823 201.563 201.823 L 203.125 201.823 203.125 198.021 C 203.125 192.935,203.573 191.989,206.191 191.546 L 207.292 191.360 207.292 189.951 C 207.292 188.328,206.739 188.103,204.949 188.998 M212.698 188.912 C 206.118 191.260,207.550 201.839,214.456 201.904 C 219.030 201.947,221.652 197.740,220.168 192.741 C 219.250 189.651,215.711 187.837,212.698 188.912 M262.370 188.773 C 256.926 190.184,256.076 198.885,261.141 201.338 C 264.383 202.907,268.620 201.213,269.516 197.989 C 271.044 192.485,267.196 187.521,262.370 188.773 M274.129 188.906 C 269.846 190.501,270.503 195.147,275.187 196.384 C 278.345 197.218,279.107 198.091,277.669 199.225 C 276.628 200.047,274.885 199.820,273.917 198.737 L 273.208 197.943 272.153 198.516 C 270.857 199.219,270.857 199.242,272.108 200.493 C 275.189 203.575,280.986 201.788,280.989 197.756 C 280.990 195.636,279.968 194.660,277.083 194.026 C 274.866 193.538,274.227 193.224,274.054 192.535 C 273.636 190.867,276.484 190.189,277.834 191.634 C 278.500 192.347,279.653 192.300,280.683 191.519 C 280.945 191.320,279.829 189.813,279.076 189.348 C 277.913 188.629,275.461 188.410,274.129 188.906 M236.458 193.745 C 236.458 199.367,236.688 200.398,238.143 201.297 C 239.780 202.309,242.297 201.986,243.815 200.571 L 244.531 199.903 244.531 200.877 L 244.531 201.851 245.714 201.772 L 246.897 201.693 246.896 195.313 L 246.895 188.932 245.518 188.932 L 244.141 188.932 244.010 193.578 L 243.880 198.224 243.150 198.851 C 242.164 199.698,240.815 199.693,239.962 198.840 C 239.331 198.209,239.323 198.144,239.323 193.501 L 239.323 188.802 237.891 188.802 L 236.458 188.802 236.458 193.745 M160.990 191.164 C 163.791 192.466,163.477 198.874,160.578 199.596 C 158.560 200.099,157.215 198.502,157.215 195.603 C 157.215 191.958,158.769 190.130,160.990 191.164 M174.754 191.154 C 175.302 191.447,176.042 192.706,176.042 193.346 C 176.042 193.684,175.616 193.750,173.438 193.750 C 170.966 193.750,170.833 193.722,170.833 193.203 C 170.833 191.721,173.353 190.404,174.754 191.154 M216.239 191.423 C 217.640 192.525,218.077 196.205,217.044 198.202 C 215.765 200.676,212.536 200.093,211.745 197.245 C 210.579 193.046,213.496 189.266,216.239 191.423 M228.940 191.293 C 231.083 192.402,231.379 197.406,229.399 199.072 C 227.233 200.895,225.000 198.987,225.000 195.313 C 225.000 191.895,226.717 190.144,228.940 191.293 M265.559 191.521 C 267.383 193.056,267.406 197.550,265.597 199.072 C 262.707 201.504,259.711 197.329,261.174 192.908 C 261.830 190.925,264.026 190.231,265.559 191.521 " stroke="none" fill="#2d4255" fill-rule="evenodd"></path><path id="path1" d="M145.573 101.043 L 145.573 119.014 163.086 118.947 L 180.599 118.880 180.635 100.977 L 180.672 83.073 163.122 83.073 L 145.573 83.073 145.573 101.043 M252.865 93.093 L 252.865 98.177 257.558 98.177 L 262.251 98.177 262.180 93.164 L 262.109 88.151 257.487 88.080 L 252.865 88.009 252.865 93.093 M110.938 115.378 C 110.938 116.656,110.910 116.704,109.961 117.079 C 109.424 117.291,108.673 117.636,108.293 117.847 C 107.340 118.374,107.034 118.321,106.018 117.453 L 105.136 116.698 104.669 117.268 C 104.214 117.825,104.221 117.858,104.966 118.632 C 105.846 119.547,105.903 119.948,105.283 120.834 C 105.037 121.184,104.645 122.060,104.411 122.780 C 103.988 124.082,103.980 124.089,102.774 124.168 C 101.215 124.270,100.828 125.781,102.361 125.781 C 103.357 125.781,104.167 126.198,104.167 126.711 C 104.167 126.925,104.460 127.679,104.818 128.385 C 105.633 129.994,105.630 130.237,104.779 131.249 L 104.089 132.069 104.644 132.624 L 105.199 133.179 105.934 132.475 C 106.864 131.584,107.058 131.593,109.115 132.620 L 110.807 133.465 110.887 134.701 C 111.008 136.591,112.427 136.613,112.551 134.727 C 112.600 133.980,112.780 133.439,113.021 133.313 C 115.811 131.860,116.253 131.811,117.439 132.824 C 118.869 134.046,119.851 133.045,118.544 131.697 C 117.573 130.695,117.530 130.374,118.213 129.253 C 118.490 128.800,118.858 127.956,119.031 127.378 C 119.334 126.367,119.391 126.325,120.545 126.250 C 122.356 126.132,122.570 124.559,120.792 124.430 C 119.596 124.343,119.685 124.446,118.518 121.803 C 117.808 120.195,117.825 119.840,118.657 118.971 C 119.330 118.269,119.335 118.236,118.894 117.562 L 118.441 116.872 117.607 117.681 C 116.592 118.664,116.495 118.668,114.779 117.792 C 114.027 117.408,113.236 117.015,113.021 116.918 C 112.764 116.803,112.603 116.284,112.551 115.403 C 112.430 113.328,110.938 113.305,110.938 115.378 M113.481 119.934 C 118.588 122.068,117.280 130.640,111.859 130.562 C 107.434 130.498,105.123 125.466,107.712 121.529 C 108.872 119.765,111.403 119.066,113.481 119.934 " stroke="none" fill="#4a91fe" fill-rule="evenodd"></path><path id="path2" d="M241.713 49.136 C 237.971 50.980,238.796 56.934,242.902 57.710 C 244.019 57.921,246.031 56.931,246.779 55.801 C 249.188 52.162,245.478 47.281,241.713 49.136 " stroke="none" fill="#ffdb4c" fill-rule="evenodd"></path><path id="path3" d="M138.619 66.860 C 139.735 66.909,141.493 66.909,142.525 66.860 C 143.557 66.810,142.643 66.770,140.495 66.771 C 138.346 66.771,137.502 66.812,138.619 66.860 M238.668 106.120 C 238.668 124.883,238.699 132.520,238.737 123.092 C 238.775 113.663,238.775 98.312,238.737 88.977 C 238.699 79.643,238.668 87.357,238.668 106.120 M131.376 106.510 C 131.376 124.915,131.407 132.445,131.445 123.242 C 131.483 114.040,131.483 98.981,131.445 89.779 C 131.407 80.576,131.376 88.105,131.376 106.510 M145.378 80.658 C 145.915 80.715,146.794 80.715,147.331 80.658 C 147.868 80.602,147.428 80.556,146.354 80.556 C 145.280 80.556,144.840 80.602,145.378 80.658 M252.148 85.864 C 252.542 85.923,253.187 85.923,253.581 85.864 C 253.975 85.804,253.652 85.755,252.865 85.755 C 252.077 85.755,251.755 85.804,252.148 85.864 M259.579 85.869 C 260.336 85.922,261.508 85.922,262.183 85.868 C 262.859 85.815,262.240 85.772,260.807 85.772 C 259.375 85.773,258.822 85.817,259.579 85.869 M199.805 87.435 C 204.639 87.474,212.549 87.474,217.383 87.435 C 222.217 87.395,218.262 87.363,208.594 87.363 C 198.926 87.363,194.971 87.395,199.805 87.435 M199.805 98.112 C 204.639 98.152,212.549 98.152,217.383 98.112 C 222.217 98.072,218.262 98.040,208.594 98.040 C 198.926 98.040,194.971 98.072,199.805 98.112 M197.740 111.393 C 201.438 111.434,207.414 111.434,211.021 111.393 C 214.627 111.352,211.602 111.319,204.297 111.319 C 196.992 111.319,194.041 111.352,197.740 111.393 M114.644 114.063 C 114.644 114.564,114.697 114.769,114.763 114.518 C 114.828 114.268,114.828 113.857,114.763 113.607 C 114.697 113.356,114.644 113.561,114.644 114.063 M153.990 121.549 C 159.121 121.589,167.442 121.589,172.480 121.549 C 177.518 121.510,173.320 121.478,163.151 121.478 C 152.982 121.478,148.860 121.510,153.990 121.549 M253.711 135.075 C 253.962 135.141,254.372 135.141,254.622 135.075 C 254.873 135.010,254.668 134.956,254.167 134.956 C 253.665 134.956,253.460 135.010,253.711 135.075 M108.659 136.328 C 108.662 136.901,108.716 137.105,108.778 136.781 C 108.840 136.457,108.838 135.988,108.773 135.739 C 108.707 135.490,108.657 135.755,108.659 136.328 M252.313 138.511 C 249.324 141.501,253.057 146.510,256.157 143.669 C 257.872 142.097,257.614 139.207,255.651 138.010 C 254.350 137.217,253.476 137.348,252.313 138.511 M259.696 141.146 C 259.696 141.647,259.749 141.852,259.815 141.602 C 259.880 141.351,259.880 140.941,259.815 140.690 C 259.749 140.439,259.696 140.645,259.696 141.146 M165.742 192.448 C 165.742 197.389,165.777 199.411,165.820 196.940 C 165.863 194.469,165.863 190.426,165.820 187.956 C 165.777 185.485,165.742 187.507,165.742 192.448 M117.825 184.446 C 117.755 184.628,117.730 187.411,117.769 190.631 L 117.840 196.484 117.969 190.299 C 118.096 184.245,118.085 183.770,117.825 184.446 M103.761 192.318 C 103.761 196.615,103.797 198.409,103.840 196.305 C 103.884 194.201,103.884 190.686,103.841 188.493 C 103.797 186.300,103.761 188.021,103.761 192.318 M189.773 186.907 C 190.235 186.964,191.055 186.965,191.596 186.909 C 192.136 186.852,191.758 186.805,190.755 186.804 C 189.753 186.803,189.311 186.849,189.773 186.907 M207.366 189.714 C 207.368 190.430,207.419 190.692,207.479 190.296 C 207.538 189.900,207.537 189.314,207.475 188.994 C 207.413 188.674,207.364 188.997,207.366 189.714 M256.849 190.104 C 256.849 190.892,256.898 191.214,256.957 190.820 C 257.017 190.426,257.017 189.782,256.957 189.388 C 256.898 188.994,256.849 189.316,256.849 190.104 M246.987 195.313 C 246.987 198.678,247.024 200.055,247.069 198.372 C 247.115 196.689,247.115 193.936,247.069 192.253 C 247.024 190.570,246.987 191.947,246.987 195.313 M236.297 192.578 C 236.298 194.297,236.340 194.966,236.391 194.065 C 236.442 193.165,236.442 191.758,236.390 190.940 C 236.339 190.122,236.297 190.859,236.297 192.578 M147.474 192.969 C 147.474 193.757,147.523 194.079,147.582 193.685 C 147.642 193.291,147.642 192.646,147.582 192.253 C 147.523 191.859,147.474 192.181,147.474 192.969 M186.021 193.229 C 186.021 194.160,186.068 194.541,186.126 194.076 C 186.184 193.610,186.184 192.848,186.126 192.383 C 186.068 191.917,186.021 192.298,186.021 193.229 M250.624 195.182 C 250.624 197.188,250.665 197.973,250.714 196.929 C 250.764 195.884,250.764 194.243,250.714 193.283 C 250.664 192.322,250.623 193.177,250.624 195.182 M217.519 195.313 C 217.519 195.957,217.570 196.221,217.632 195.898 C 217.694 195.576,217.694 195.049,217.632 194.727 C 217.570 194.404,217.519 194.668,217.519 195.313 M269.863 195.313 C 269.863 195.957,269.913 196.221,269.975 195.898 C 270.038 195.576,270.038 195.049,269.975 194.727 C 269.913 194.404,269.863 194.668,269.863 195.313 M281.055 197.786 C 281.058 198.359,281.111 198.563,281.174 198.239 C 281.236 197.915,281.234 197.446,281.169 197.197 C 281.103 196.949,281.052 197.214,281.055 197.786 M256.849 200.260 C 256.849 201.048,256.898 201.370,256.957 200.977 C 257.017 200.583,257.017 199.938,256.957 199.544 C 256.898 199.150,256.849 199.473,256.849 200.260 M94.857 199.398 C 95.107 199.464,95.518 199.464,95.768 199.398 C 96.019 199.333,95.814 199.279,95.313 199.279 C 94.811 199.279,94.606 199.333,94.857 199.398 M185.998 201.042 C 185.998 201.543,186.052 201.748,186.117 201.497 C 186.183 201.247,186.183 200.837,186.117 200.586 C 186.052 200.335,185.998 200.540,185.998 201.042 M94.600 202.010 C 94.996 202.070,95.582 202.068,95.902 202.006 C 96.222 201.944,95.898 201.895,95.182 201.897 C 94.466 201.899,94.204 201.950,94.600 202.010 M253.971 202.002 C 254.222 202.068,254.632 202.068,254.883 202.002 C 255.133 201.937,254.928 201.883,254.427 201.883 C 253.926 201.883,253.721 201.937,253.971 202.002 " stroke="none" fill="#93c382" fill-rule="evenodd"></path></g></svg>