<svg id="svg" version="1.1" xmlns="http://www.w3.org/2000/svg" xmlns:xlink="http://www.w3.org/1999/xlink" width="400" height="391.5032679738562" viewBox="0, 0, 400,391.5032679738562"><g id="svgg"><path id="path0" d="M162.586 41.138 C 148.857 43.585,139.705 54.738,139.120 69.736 L 138.883 75.808 119.687 76.023 C 99.170 76.253,99.417 76.229,95.160 78.376 C 84.039 83.986,79.494 103.066,88.206 107.571 C 89.180 108.075,103.289 108.146,200.047 108.136 L 310.774 108.124 312.228 107.307 C 318.708 103.665,317.030 88.618,309.362 81.609 C 303.672 76.409,301.609 76.004,280.824 76.004 L 264.146 76.004 263.910 75.122 C 263.780 74.638,263.671 72.466,263.668 70.297 C 263.650 56.647,256.463 46.625,243.278 41.863 L 240.744 40.948 202.547 40.886 C 181.538 40.852,163.555 40.965,162.586 41.138 M240.037 59.056 C 244.643 61.519,246.416 64.946,246.421 71.401 L 246.425 76.004 201.371 76.004 L 156.317 76.004 156.321 71.401 C 156.326 66.017,157.011 64.022,159.814 61.231 C 163.250 57.810,160.645 58.004,201.959 58.097 L 238.394 58.178 240.037 59.056 M98.139 123.329 C 97.152 124.003,96.224 125.122,95.631 126.352 L 94.690 128.306 95.351 137.316 C 95.714 142.272,96.183 148.619,96.392 151.420 C 96.602 154.221,97.037 160.127,97.359 164.545 C 97.681 168.962,98.119 174.956,98.333 177.865 C 98.547 180.774,98.986 186.856,99.310 191.381 C 99.898 199.603,100.310 205.131,101.078 215.083 C 101.303 217.992,101.662 222.929,101.876 226.053 C 102.274 231.846,102.546 235.609,103.621 250.147 C 103.956 254.672,104.399 260.754,104.605 263.663 C 105.038 269.769,106.102 284.317,107.555 304.016 C 107.881 308.433,108.318 314.603,108.526 317.728 C 109.071 325.936,109.573 329.340,110.693 332.429 C 113.760 340.890,119.906 346.778,129.011 349.979 L 131.440 350.833 199.804 350.833 L 268.168 350.833 270.883 349.923 C 280.045 346.854,286.625 340.351,289.534 331.492 C 290.456 328.682,291.234 320.133,293.441 288.541 C 293.636 285.739,294.071 279.745,294.406 275.220 C 294.741 270.695,295.189 264.613,295.401 261.704 C 295.614 258.795,296.056 252.801,296.383 248.384 C 296.711 243.967,297.148 237.973,297.356 235.064 C 297.564 232.155,298.000 226.072,298.326 221.548 C 298.651 217.023,299.012 211.998,299.128 210.382 C 299.243 208.766,299.507 205.240,299.715 202.547 C 299.922 199.853,300.355 194.035,300.678 189.618 C 301.000 185.201,301.445 179.119,301.665 176.102 C 301.886 173.085,302.329 167.003,302.649 162.586 C 302.970 158.168,303.418 152.086,303.645 149.070 C 305.288 127.206,305.283 127.950,303.799 125.438 C 303.429 124.811,302.409 123.834,301.534 123.266 L 299.941 122.233 199.824 122.246 L 99.706 122.259 98.139 123.329 M146.400 144.981 C 147.747 145.490,149.537 147.139,150.274 148.549 C 150.909 149.764,151.112 154.526,152.805 208.031 C 153.020 214.819,153.370 225.837,153.582 232.517 C 153.794 239.197,154.140 250.392,154.351 257.395 C 154.562 264.398,154.912 275.152,155.129 281.293 C 156.305 314.643,156.305 312.833,155.145 314.897 C 152.713 319.224,146.642 319.657,143.781 315.707 C 142.378 313.771,142.321 313.189,141.811 295.593 C 141.593 288.051,141.153 273.771,140.834 263.859 C 140.516 253.947,140.078 240.284,139.862 233.497 C 139.646 226.709,139.204 212.870,138.880 202.742 C 138.556 192.615,138.124 178.688,137.920 171.792 C 137.716 164.897,137.433 157.356,137.291 155.034 C 136.816 147.247,140.790 142.861,146.400 144.981 M202.856 145.306 C 204.711 146.253,205.621 147.269,206.288 149.142 C 206.925 150.927,207.112 310.470,206.481 313.192 C 204.979 319.669,195.908 320.291,193.561 314.078 C 192.862 312.228,192.987 150.400,193.688 148.721 C 195.176 145.161,199.452 143.568,202.856 145.306 M257.904 145.199 C 261.793 147.169,262.273 148.605,261.944 157.296 C 261.798 161.175,261.417 173.692,261.099 185.113 C 260.386 210.697,259.926 226.892,259.160 253.477 C 258.834 264.789,258.396 280.392,258.187 288.149 C 257.475 314.595,257.492 314.435,255.177 316.625 C 251.620 319.991,246.208 318.704,244.254 314.027 C 243.684 312.663,243.662 311.257,244.038 300.133 C 244.464 287.512,244.966 270.639,245.663 245.446 C 245.877 237.689,246.218 225.524,246.419 218.413 C 246.621 211.303,246.965 198.962,247.183 190.989 C 247.980 161.845,248.494 149.886,248.999 148.678 C 250.385 145.366,254.815 143.635,257.904 145.199 " stroke="none" fill="#ffffff" fill-rule="evenodd"></path></g></svg>