<svg id="svg" version="1.1" xmlns="http://www.w3.org/2000/svg" xmlns:xlink="http://www.w3.org/1999/xlink" width="400" height="400" viewBox="0, 0, 400,400"><g id="svgg"><path id="path0" d="M198.095 130.323 C 197.700 130.581,197.613 133.838,197.695 145.227 L 197.800 159.800 199.200 159.800 L 200.600 159.800 200.600 145.000 L 200.600 130.200 199.600 130.096 C 199.050 130.039,198.373 130.141,198.095 130.323 M172.656 145.309 C 171.890 145.869,172.121 146.579,175.805 155.000 C 176.094 155.660,177.079 157.941,177.995 160.069 L 179.660 163.938 180.831 163.529 C 182.609 162.909,182.643 163.066,178.690 153.741 C 174.803 144.574,174.411 144.026,172.656 145.309 M219.684 153.508 C 215.482 163.440,215.622 162.882,217.185 163.472 C 218.710 164.048,218.418 164.523,222.391 155.000 C 224.227 150.600,225.880 146.829,226.064 146.620 C 226.698 145.902,225.367 144.800,223.865 144.800 C 223.592 144.800,221.710 148.719,219.684 153.508 M144.229 153.078 L 143.076 154.147 152.192 163.092 L 161.308 172.038 162.254 171.149 C 163.513 169.966,163.476 169.803,161.500 167.899 C 160.565 166.998,156.556 163.054,152.591 159.135 L 145.382 152.009 144.229 153.078 M243.669 160.930 L 234.739 169.814 235.613 170.926 C 236.094 171.537,236.636 171.984,236.817 171.919 C 237.340 171.731,254.800 154.369,254.800 154.037 C 254.800 153.715,253.060 151.985,252.774 152.023 C 252.678 152.036,248.581 156.044,243.669 160.930 M192.000 170.866 C 188.370 171.972,184.590 173.113,183.600 173.401 C 182.610 173.689,175.613 175.780,168.051 178.047 L 154.301 182.168 150.687 186.184 C 148.699 188.393,146.334 191.010,145.431 192.000 C 141.403 196.420,139.188 199.145,139.482 199.319 C 139.828 199.524,143.830 201.136,149.200 203.234 C 151.070 203.965,152.823 204.726,153.095 204.926 C 153.469 205.201,153.616 208.767,153.695 219.476 L 153.800 233.663 156.400 234.774 C 157.830 235.385,159.810 236.254,160.800 236.705 C 161.790 237.156,166.110 239.088,170.400 240.997 C 174.690 242.907,179.338 244.994,180.728 245.635 C 182.118 246.276,183.323 246.800,183.404 246.800 C 183.486 246.800,185.104 247.520,187.000 248.400 C 188.896 249.280,190.516 250.000,190.600 250.000 C 190.684 250.000,192.300 250.718,194.192 251.596 C 198.783 253.727,199.199 253.802,201.253 252.869 C 202.214 252.432,209.660 249.105,217.800 245.476 C 235.272 237.687,241.764 234.771,243.400 233.974 L 244.600 233.389 244.705 219.122 L 244.810 204.855 249.105 203.189 C 251.467 202.273,254.615 201.070,256.100 200.515 C 259.460 199.261,259.470 199.355,255.492 194.972 C 251.694 190.787,247.094 185.648,245.264 183.547 C 244.568 182.747,243.594 181.997,243.099 181.880 C 242.605 181.762,241.255 181.381,240.100 181.033 C 238.945 180.685,237.145 180.142,236.100 179.826 C 235.055 179.511,232.670 178.804,230.800 178.256 C 228.930 177.708,223.440 176.058,218.600 174.589 C 209.934 171.959,207.765 171.310,204.600 170.397 C 203.720 170.143,202.229 169.680,201.286 169.367 C 199.069 168.633,199.624 168.544,192.000 170.866 M205.305 173.841 C 208.657 174.853,212.210 175.921,213.200 176.214 C 233.625 182.257,237.257 183.400,237.259 183.784 C 237.260 183.989,234.773 185.116,231.731 186.286 C 228.689 187.457,225.840 188.587,225.400 188.798 C 224.416 189.269,207.073 195.973,202.400 197.688 L 199.000 198.936 192.000 196.213 C 178.758 191.062,165.398 185.892,164.000 185.379 C 160.276 184.011,160.177 183.956,160.802 183.607 C 161.333 183.310,190.693 174.387,195.741 172.988 C 196.809 172.693,197.784 172.349,197.908 172.225 C 198.327 171.806,199.197 171.996,205.305 173.841 M163.871 188.649 C 168.232 190.325,172.551 191.990,173.468 192.349 C 174.386 192.707,179.833 194.800,185.573 197.000 C 191.833 199.400,195.967 201.190,195.904 201.476 C 195.761 202.128,185.203 213.600,184.746 213.600 C 184.544 213.600,182.359 212.813,179.890 211.852 C 177.420 210.891,171.440 208.572,166.600 206.698 C 150.968 200.648,145.006 198.288,144.714 198.035 C 144.556 197.899,145.816 196.253,147.514 194.377 C 149.211 192.502,151.660 189.760,152.956 188.284 C 155.795 185.050,154.389 185.003,163.871 188.649 M246.200 189.313 C 247.960 191.323,250.377 194.014,251.570 195.293 C 254.283 198.201,254.861 197.716,243.546 202.038 C 238.406 204.002,233.840 205.783,233.400 205.997 C 232.960 206.210,229.090 207.726,224.800 209.364 C 220.510 211.003,216.307 212.636,215.461 212.994 C 213.387 213.869,213.357 213.854,209.968 210.192 C 203.807 203.534,202.015 201.426,202.303 201.171 C 202.466 201.027,205.210 199.905,208.400 198.678 C 220.588 193.990,237.884 187.267,239.800 186.473 C 242.664 185.286,242.680 185.293,246.200 189.313 M197.600 227.133 C 197.600 239.197,197.496 249.171,197.369 249.298 C 197.151 249.515,195.553 248.878,190.400 246.520 C 189.190 245.966,181.810 242.672,174.000 239.200 C 166.190 235.729,159.125 232.565,158.300 232.170 L 156.800 231.452 156.800 218.926 C 156.800 212.037,156.947 206.400,157.127 206.400 C 157.306 206.400,159.691 207.283,162.427 208.362 C 165.162 209.441,169.560 211.161,172.200 212.183 C 174.840 213.205,178.849 214.765,181.108 215.649 C 183.368 216.532,185.441 217.198,185.715 217.128 C 186.134 217.020,193.771 209.002,196.219 206.100 C 196.636 205.605,197.118 205.200,197.289 205.200 C 197.460 205.200,197.600 215.070,197.600 227.133 M207.498 212.100 C 212.913 218.083,211.608 217.795,219.470 214.743 C 237.106 207.898,241.025 206.400,241.300 206.400 C 241.465 206.400,241.600 212.040,241.600 218.932 L 241.600 231.465 239.100 232.584 C 232.155 235.693,203.229 248.567,202.100 249.052 L 200.800 249.611 200.800 227.336 L 200.800 205.061 201.841 206.030 C 202.414 206.564,204.959 209.295,207.498 212.100 M231.331 310.850 C 222.236 312.471,222.213 326.137,231.303 327.075 C 234.334 327.388,236.400 326.969,236.400 326.041 C 236.400 325.406,236.045 325.323,233.500 325.359 C 228.878 325.424,226.799 323.426,226.801 318.920 C 226.804 314.469,229.213 312.235,233.700 312.521 C 237.779 312.781,237.702 311.332,233.600 310.652 C 233.270 310.598,232.249 310.687,231.331 310.850 M152.100 311.041 C 151.314 311.396,151.391 326.128,152.182 326.785 C 153.210 327.638,153.600 326.824,153.600 323.828 L 153.600 320.903 156.010 320.631 C 161.241 320.039,163.606 314.330,159.684 311.761 C 158.612 311.058,153.200 310.544,152.100 311.041 M164.900 311.065 C 164.266 311.321,164.168 326.765,164.800 326.860 C 166.143 327.062,166.204 326.939,166.400 323.600 L 166.600 320.200 168.094 320.076 C 170.122 319.908,171.278 321.117,171.944 324.101 C 172.436 326.304,173.480 327.569,174.358 327.026 C 174.958 326.655,173.515 321.587,172.350 319.975 C 171.992 319.478,172.113 319.120,172.940 318.226 C 176.813 314.048,170.793 308.687,164.900 311.065 M180.408 311.479 C 175.228 314.163,175.219 323.710,180.394 326.460 C 187.048 329.995,193.722 321.974,190.198 314.675 C 188.453 311.060,184.013 309.611,180.408 311.479 M194.692 311.052 C 194.040 311.245,193.992 311.893,194.092 319.131 L 194.200 327.000 197.625 326.993 C 205.151 326.976,209.187 321.501,206.423 315.054 C 205.023 311.786,199.070 309.756,194.692 311.052 M210.280 311.053 C 209.695 311.638,209.972 322.636,210.610 324.163 C 212.308 328.226,218.859 328.233,220.965 324.176 C 222.605 321.014,222.388 310.632,220.686 310.874 C 219.827 310.996,219.794 311.181,219.600 317.020 C 219.373 323.842,218.980 324.980,216.699 325.408 C 213.065 326.090,212.255 324.641,212.000 317.004 C 211.802 311.065,211.458 309.875,210.280 311.053 M238.400 311.569 C 238.400 312.251,238.716 312.377,240.700 312.480 L 243.000 312.600 243.200 319.800 C 243.350 325.217,243.524 326.990,243.900 326.960 C 244.175 326.938,244.576 326.893,244.791 326.860 C 245.023 326.824,245.226 323.927,245.291 319.700 L 245.400 312.600 247.725 312.479 C 249.662 312.379,250.029 312.245,249.920 311.679 C 249.703 310.546,238.400 310.438,238.400 311.569 M158.618 313.382 C 161.117 315.881,158.186 319.864,154.524 318.945 C 153.603 318.714,153.055 313.478,153.867 312.667 C 154.576 311.958,157.658 312.421,158.618 313.382 M171.418 313.382 C 173.560 315.523,172.092 318.151,168.737 318.181 L 166.600 318.200 166.478 315.845 C 166.312 312.621,166.448 312.400,168.606 312.400 C 170.016 312.400,170.662 312.625,171.418 313.382 M186.768 313.435 C 190.060 316.204,189.576 323.151,185.960 325.020 C 181.365 327.397,177.483 322.158,179.216 315.918 C 180.127 312.636,184.220 311.291,186.768 313.435 M202.008 313.204 C 207.797 316.157,205.105 325.238,198.404 325.360 L 196.200 325.400 196.089 319.418 C 196.028 316.127,196.067 313.202,196.176 312.918 C 196.493 312.092,200.184 312.273,202.008 313.204 " stroke="none" fill="#32556e" fill-rule="evenodd"></path><path id="path1" d="M0.000 200.000 L 0.000 400.000 200.000 400.000 L 400.000 400.000 400.000 200.000 L 400.000 0.000 200.000 0.000 L 0.000 0.000 0.000 200.000 M200.600 145.000 L 200.600 159.800 199.200 159.800 L 197.800 159.800 197.695 145.227 C 197.582 129.610,197.548 129.884,199.600 130.096 L 200.600 130.200 200.600 145.000 M178.690 153.741 C 182.643 163.066,182.609 162.909,180.831 163.529 L 179.660 163.938 177.995 160.069 C 177.079 157.941,176.094 155.660,175.805 155.000 C 172.121 146.579,171.890 145.869,172.656 145.309 C 174.411 144.026,174.803 144.574,178.690 153.741 M225.381 145.264 C 226.469 145.760,226.598 146.016,226.064 146.620 C 225.880 146.829,224.227 150.600,222.391 155.000 C 220.555 159.400,218.900 163.207,218.711 163.459 C 218.307 164.003,216.000 163.289,216.000 162.620 C 216.000 161.617,223.423 144.800,223.865 144.800 C 224.139 144.800,224.821 145.009,225.381 145.264 M161.500 167.899 C 163.476 169.803,163.513 169.966,162.254 171.149 L 161.308 172.038 152.192 163.092 L 143.076 154.147 144.229 153.078 L 145.382 152.009 152.591 159.135 C 156.556 163.054,160.565 166.998,161.500 167.899 M253.874 152.870 C 255.181 154.097,255.642 153.502,245.973 163.068 C 235.919 173.015,236.757 172.380,235.613 170.926 L 234.739 169.814 243.669 160.930 C 248.581 156.044,252.678 152.036,252.774 152.023 C 252.870 152.010,253.365 152.391,253.874 152.870 M201.286 169.367 C 202.229 169.680,203.720 170.143,204.600 170.397 C 207.765 171.310,209.934 171.959,218.600 174.589 C 223.440 176.058,228.930 177.708,230.800 178.256 C 232.670 178.804,235.055 179.511,236.100 179.826 C 237.145 180.142,238.945 180.685,240.100 181.033 C 241.255 181.381,242.605 181.762,243.099 181.880 C 243.594 181.997,244.568 182.747,245.264 183.547 C 247.094 185.648,251.694 190.787,255.492 194.972 C 259.470 199.355,259.460 199.261,256.100 200.515 C 254.615 201.070,251.467 202.273,249.105 203.189 L 244.810 204.855 244.705 219.122 L 244.600 233.389 243.400 233.974 C 241.764 234.771,235.272 237.687,217.800 245.476 C 209.660 249.105,202.214 252.432,201.253 252.869 C 199.199 253.802,198.783 253.727,194.192 251.596 C 192.300 250.718,190.684 250.000,190.600 250.000 C 190.516 250.000,188.896 249.280,187.000 248.400 C 185.104 247.520,183.486 246.800,183.404 246.800 C 183.323 246.800,182.118 246.276,180.728 245.635 C 179.338 244.994,174.690 242.907,170.400 240.997 C 166.110 239.088,161.790 237.156,160.800 236.705 C 159.810 236.254,157.830 235.385,156.400 234.774 L 153.800 233.663 153.695 219.476 C 153.616 208.767,153.469 205.201,153.095 204.926 C 152.823 204.726,151.070 203.965,149.200 203.234 C 143.830 201.136,139.828 199.524,139.482 199.319 C 139.188 199.145,141.403 196.420,145.431 192.000 C 146.334 191.010,148.699 188.393,150.687 186.184 L 154.301 182.168 168.051 178.047 C 175.613 175.780,182.610 173.689,183.600 173.401 C 184.590 173.113,188.370 171.972,192.000 170.866 C 199.624 168.544,199.069 168.633,201.286 169.367 M197.908 172.225 C 197.784 172.349,196.809 172.693,195.741 172.988 C 190.693 174.387,161.333 183.310,160.802 183.607 C 160.177 183.956,160.276 184.011,164.000 185.379 C 165.398 185.892,178.758 191.062,192.000 196.213 L 199.000 198.936 202.400 197.688 C 207.073 195.973,224.416 189.269,225.400 188.798 C 225.840 188.587,228.689 187.457,231.731 186.286 C 234.773 185.116,237.260 183.989,237.259 183.784 C 237.257 183.400,233.625 182.257,213.200 176.214 C 212.210 175.921,208.657 174.853,205.305 173.841 C 199.197 171.996,198.327 171.806,197.908 172.225 M152.956 188.284 C 151.660 189.760,149.211 192.502,147.514 194.377 C 145.816 196.253,144.556 197.899,144.714 198.035 C 145.006 198.288,150.968 200.648,166.600 206.698 C 171.440 208.572,177.420 210.891,179.890 211.852 C 182.359 212.813,184.544 213.600,184.746 213.600 C 185.203 213.600,195.761 202.128,195.904 201.476 C 195.967 201.190,191.833 199.400,185.573 197.000 C 179.833 194.800,174.386 192.707,173.468 192.349 C 165.491 189.234,155.883 185.600,155.627 185.600 C 155.454 185.600,154.252 186.808,152.956 188.284 M239.800 186.473 C 237.884 187.267,220.588 193.990,208.400 198.678 C 205.210 199.905,202.466 201.027,202.303 201.171 C 202.015 201.426,203.807 203.534,209.968 210.192 C 213.357 213.854,213.387 213.869,215.461 212.994 C 216.307 212.636,220.510 211.003,224.800 209.364 C 229.090 207.726,232.960 206.210,233.400 205.997 C 233.840 205.783,238.406 204.002,243.546 202.038 C 254.861 197.716,254.283 198.201,251.570 195.293 C 250.377 194.014,247.960 191.323,246.200 189.313 C 242.680 185.293,242.664 185.286,239.800 186.473 M196.219 206.100 C 193.771 209.002,186.134 217.020,185.715 217.128 C 185.441 217.198,183.368 216.532,181.108 215.649 C 178.849 214.765,174.840 213.205,172.200 212.183 C 169.560 211.161,165.162 209.441,162.427 208.362 C 159.691 207.283,157.306 206.400,157.127 206.400 C 156.947 206.400,156.800 212.037,156.800 218.926 L 156.800 231.452 158.300 232.170 C 159.125 232.565,166.190 235.729,174.000 239.200 C 181.810 242.672,189.190 245.966,190.400 246.520 C 195.553 248.878,197.151 249.515,197.369 249.298 C 197.723 248.944,197.644 205.200,197.289 205.200 C 197.118 205.200,196.636 205.605,196.219 206.100 M200.800 227.336 L 200.800 249.611 202.100 249.052 C 203.229 248.567,232.155 235.693,239.100 232.584 L 241.600 231.465 241.600 218.932 C 241.600 212.040,241.465 206.400,241.300 206.400 C 241.025 206.400,237.106 207.898,219.470 214.743 C 211.608 217.795,212.913 218.083,207.498 212.100 C 204.959 209.295,202.414 206.564,201.841 206.030 L 200.800 205.061 200.800 227.336 M235.300 310.984 C 237.868 311.524,236.636 312.708,233.700 312.521 C 229.213 312.235,226.804 314.469,226.801 318.920 C 226.799 323.426,228.878 325.424,233.500 325.359 C 236.045 325.323,236.400 325.406,236.400 326.041 C 236.400 326.969,234.334 327.388,231.303 327.075 C 222.213 326.137,222.236 312.471,231.331 310.850 C 233.011 310.551,233.291 310.560,235.300 310.984 M159.684 311.761 C 163.606 314.330,161.241 320.039,156.010 320.631 L 153.600 320.903 153.600 323.828 C 153.600 326.824,153.210 327.638,152.182 326.785 C 151.391 326.128,151.314 311.396,152.100 311.041 C 153.200 310.544,158.612 311.058,159.684 311.761 M172.000 311.501 C 174.629 312.815,175.066 315.933,172.940 318.226 C 172.113 319.120,171.992 319.478,172.350 319.975 C 173.515 321.587,174.958 326.655,174.358 327.026 C 173.480 327.569,172.436 326.304,171.944 324.101 C 171.278 321.117,170.122 319.908,168.094 320.076 L 166.600 320.200 166.400 323.600 C 166.204 326.939,166.143 327.062,164.800 326.860 C 164.168 326.765,164.266 311.321,164.900 311.065 C 166.159 310.557,170.664 310.833,172.000 311.501 M188.100 311.808 C 192.527 315.008,191.980 323.882,187.207 326.300 C 179.711 330.098,173.174 320.945,178.107 313.560 C 179.972 310.769,185.357 309.824,188.100 311.808 M204.028 312.171 C 211.075 316.834,206.695 326.973,197.625 326.993 L 194.200 327.000 194.092 319.131 C 193.966 309.994,193.506 310.773,198.905 310.971 C 201.911 311.082,202.640 311.253,204.028 312.171 M212.000 317.004 C 212.255 324.641,213.065 326.090,216.699 325.408 C 218.980 324.980,219.373 323.842,219.600 317.020 C 219.794 311.181,219.827 310.996,220.686 310.874 C 222.388 310.632,222.605 321.014,220.965 324.176 C 218.859 328.233,212.308 328.226,210.610 324.163 C 209.972 322.636,209.695 311.638,210.280 311.053 C 211.458 309.875,211.802 311.065,212.000 317.004 M249.920 311.679 C 250.029 312.245,249.662 312.379,247.725 312.479 L 245.400 312.600 245.291 319.700 C 245.226 323.927,245.023 326.824,244.791 326.860 C 244.576 326.893,244.175 326.938,243.900 326.960 C 243.524 326.990,243.350 325.217,243.200 319.800 L 243.000 312.600 240.700 312.480 C 238.716 312.377,238.400 312.251,238.400 311.569 C 238.400 310.438,249.703 310.546,249.920 311.679 M153.867 312.667 C 153.055 313.478,153.603 318.714,154.524 318.945 C 158.186 319.864,161.117 315.881,158.618 313.382 C 157.658 312.421,154.576 311.958,153.867 312.667 M166.566 312.945 C 166.451 313.244,166.412 314.549,166.478 315.845 L 166.600 318.200 168.737 318.181 C 172.092 318.151,173.560 315.523,171.418 313.382 C 170.288 312.252,166.947 311.951,166.566 312.945 M180.914 313.423 C 177.782 315.891,178.208 323.246,181.584 324.992 C 186.064 327.309,190.283 322.331,188.638 316.670 C 187.454 312.597,183.872 311.091,180.914 313.423 M196.176 312.918 C 196.067 313.202,196.028 316.127,196.089 319.418 L 196.200 325.400 198.404 325.360 C 207.357 325.197,207.356 312.400,198.403 312.400 C 197.113 312.400,196.303 312.588,196.176 312.918 " stroke="none" fill="#e8e8e8" fill-rule="evenodd"></path></g></svg>